<svg width="25" height="22" viewBox="0 0 25 22" fill="none" xmlns="http://www.w3.org/2000/svg">
<path d="M4.69321 18.6913L4.68199 18.6992L4.67099 18.7074L1.84477 20.8246L1.84471 20.8245L1.83426 20.8325C1.61524 21.0012 1.31474 20.9883 1.09185 20.7046L1.05334 20.6556L1.03334 20.6358C1.03104 20.6299 1.02832 20.6221 1.02542 20.6123C1.01005 20.5606 1 20.4888 1 20.4151V6.04892C1 3.28387 3.29251 1 6.11076 1H18.3323C21.1505 1 23.443 3.28387 23.443 6.04892V12.854C23.443 15.619 21.1505 17.9029 18.3323 17.9029H7.10376C6.18207 17.9029 5.37286 18.2107 4.69321 18.6913Z" stroke="#DA291C" stroke-width="2"/>
<g clip-path="url(#clip0_9625_571)">
<path d="M13.9444 5.55518L17.7772 13.888H16.7202L12.8574 5.55518H13.9444Z" fill="#E2211C"/>
<path d="M11.8653 5.55518L15.6981 13.888H14.6406L10.7783 5.55518H11.8653Z" fill="#E2211C"/>
<path d="M10.7776 5.55518L6.94434 13.888H8.0018L11.8641 5.55518H10.7776Z" fill="#E2211C"/>
</g>
<defs>
<clipPath id="clip0_9625_571">
<rect width="10.8327" height="8.33285" fill="white" transform="translate(6.94434 5.55518)"/>
</clipPath>
</defs>
</svg>
