<svg width="35" height="31" viewBox="0 0 35 31" fill="none" xmlns="http://www.w3.org/2000/svg">
<path fill-rule="evenodd" clip-rule="evenodd" d="M26.1295 0.0117188C30.8758 0.0117188 34.7592 3.85581 34.7592 8.55414V18.1644C34.7592 22.8627 30.8758 26.7068 26.1295 26.7068H10.2723C9.30147 26.7068 8.43849 27.0271 7.68339 27.561L3.69213 30.5509C2.72129 31.2983 1.42682 31.0848 0.671722 30.1238C0.348106 29.8034 0.240234 29.2695 0.240234 28.8424V8.55414C0.240234 3.85581 4.12362 0.0117188 8.86998 0.0117188H26.1295Z" fill="white"/>
<g clip-path="url(#clip0_9590_841)">
<path d="M19.931 7.85645L25.3438 19.6243H23.8511L18.396 7.85645H19.931Z" fill="#DA291C"/>
<path d="M16.995 7.85645L22.4078 19.6243H20.9144L15.46 7.85645H16.995Z" fill="#DA291C"/>
<path d="M15.4589 7.85645L10.0454 19.6243H11.5388L16.9932 7.85645H15.4589Z" fill="#DA291C"/>
</g>
<defs>
<clipPath id="clip0_9590_841">
<rect width="15.2982" height="11.7678" fill="white" transform="translate(10.0454 7.85645)"/>
</clipPath>
</defs>
</svg>
