<svg width="69" height="62" viewBox="0 0 69 62" fill="none" xmlns="http://www.w3.org/2000/svg">
<path fill-rule="evenodd" clip-rule="evenodd" d="M51.75 0.0566406C61.2375 0.0566406 69 7.74059 69 17.1321V36.342C69 45.7335 61.2375 53.4174 51.75 53.4174H20.0531C18.1125 53.4174 16.3875 54.0577 14.8781 55.125L6.9 61.1014C4.95938 62.5955 2.37188 62.1686 0.8625 60.2476C0.215625 59.6073 0 58.5401 0 57.6863V17.1321C0 7.74059 7.7625 0.0566406 17.25 0.0566406H51.75Z" fill="#DA291C"/>
<g clip-path="url(#clip0_9590_799)">
<path d="M39.3617 15.7383L50.1814 39.261H47.1976L36.2935 15.7383H39.3617Z" fill="white"/>
<path d="M33.4936 15.7383L44.3133 39.261H41.3282L30.4253 15.7383H33.4936Z" fill="white"/>
<path d="M30.423 15.7383L19.6021 39.261H22.5871L33.49 15.7383H30.423Z" fill="white"/>
</g>
<defs>
<clipPath id="clip0_9590_799">
<rect width="30.5795" height="23.5227" fill="white" transform="translate(19.6021 15.7383)"/>
</clipPath>
</defs>
</svg>
